<?xml version="1.0" standalone="no"?><!DOCTYPE svg PUBLIC "-//W3C//DTD SVG 1.1//EN" "http://www.w3.org/Graphics/SVG/1.1/DTD/svg11.dtd"><svg t="1570983635976" class="icon" viewBox="0 0 1024 1024" version="1.1" xmlns="http://www.w3.org/2000/svg" p-id="20941" xmlns:xlink="http://www.w3.org/1999/xlink" width="128" height="128"><defs><style type="text/css"></style></defs><path d="M960.570877 530.627243c0-65.016783-66.931389-122.92875-171.177638-160.278403 7.106862-39.192627 9.524934-75.55172 7.046486-107.531062-13.738909 12.128225-30.342052 21.074991-48.679699 25.674753 0.204661 20.204158-1.905396 42.687218-6.245238 66.884316-35.681664-9.682523-74.560136-17.181311-115.756397-22.081924-24.837688-33.223682-50.76929-63.143109-76.992535-89.199555 19.713994-16.639982 39.020712-30.230512 57.404408-40.318264-2.276856-9.095145-3.499707-18.606777-3.499707-28.404933 0-9.377578 1.136893-18.48398 3.226484-27.220968-30.274514 13.865799-62.104453 34.865065-94.055143 61.946864-84.466764-71.596641-168.078043-100.599186-224.38035-68.092841-56.304354 32.505321-72.991408 119.411647-53.226249 228.351801C130.005424 407.709749 63.085292 465.615577 63.085292 530.627243c0 65.012689 66.920132 122.920564 171.151032 160.270217-19.767206 108.943224-3.078105 195.853643 53.224202 228.359988 56.30333 32.503275 139.910517 3.505847 224.37421-68.086701 84.460624 71.586408 168.066787 100.583836 224.367047 68.080561 56.302307-32.507368 72.991408-119.410624 53.222155-228.353848C893.654838 653.547807 960.570877 595.639932 960.570877 530.627243zM730.27377 404.502707c-5.562692 20.244067-12.4301 41.301661-20.551058 62.912865-6.711865-12.919241-13.791098-25.856901-21.249977-38.777165-7.458879-12.921287-15.125489-25.52228-22.959921-37.797861C688.289564 394.613476 709.959096 399.197888 730.27377 404.502707zM709.730898 593.838913c8.121981 21.61018 14.988366 42.669822 20.551058 62.913888-20.316721 5.308913-41.986253 9.892301-64.766073 13.661138 7.836479-12.275581 15.500019-24.876574 22.961968-37.796838C695.938778 619.696838 703.020056 606.759177 709.730898 593.838913zM643.4094 606.598518c-14.702863 25.465998-30.124088 49.63956-45.963845 72.316026-27.562752 2.385327-56.209186 3.647063-85.6231 3.647063-29.40675 0-58.047044-1.261737-85.603657-3.647063-15.844873-22.676465-31.264051-46.850028-45.971008-72.322166-14.703887-25.465998-27.927049-50.90539-39.640836-75.961042 11.714809-25.059745 24.941042-50.500161 39.646975-75.971275 14.706957-25.473161 30.127158-49.64263 45.971008-72.317049 27.554566-2.384303 56.193837-3.650133 85.597517-3.650133 29.413913 0 58.057277 1.267876 85.61696 3.651157 15.842827 22.673395 31.264051 46.845934 45.967938 72.315002 14.70491 25.472138 27.932166 50.913577 39.647999 75.971275C671.33952 555.690058 658.116357 581.127404 643.4094 606.598518zM511.832689 782.882454c-14.756075-14.948457-29.564339-31.423687-44.221154-49.266054 14.547321 0.64366 29.291117 0.98749 44.211944 0.98749 14.924921 0 29.677926-0.343831 44.228317-0.98749C541.391912 751.458767 526.584672 767.933997 511.832689 782.882454zM335.181387 632.610962c7.461949 12.926404 15.129582 25.526373 22.965038 37.801954-22.779819-3.768837-44.452421-8.352225-64.770166-13.661138 5.563716-20.250206 12.429077-41.309848 20.552082-62.920028C320.642253 606.753037 327.721485 619.690698 335.181387 632.610962zM313.929364 467.431945c-8.123005-21.615297-14.988366-42.678008-20.554128-62.928215 20.316721-5.306866 41.987277-9.890254 64.764026-13.663184-7.832386 12.273535-15.493879 24.879644-22.952758 37.799908C327.724555 441.566858 320.643276 454.507588 313.929364 467.431945zM556.04361 327.639109c-14.547321-0.64673-29.296233-0.985444-44.221154-0.985444-14.911618 0-29.64825 0.338714-44.187385 0.985444 14.654768-17.83725 29.455869-34.304294 44.205804-49.244564C526.590811 293.334815 541.391912 309.804928 556.04361 327.639109zM315.994396 191.430914c38.066991-21.976524 96.420003-0.082888 158.904103 52.66036-26.224268 26.057469-52.154847 55.978942-76.995605 89.201601-41.197284 4.901637-80.07678 12.400425-115.76049 22.082948C267.709693 274.892791 277.924335 213.411531 315.994396 191.430914zM120.156102 530.628266c0-43.957141 48.13837-83.546811 125.059274-111.286596 9.455349 35.743062 22.402219 73.161277 38.755676 111.289666-16.353456 38.127366-29.29828 75.544557-38.753629 111.289666C168.295496 614.175077 120.156102 574.587454 120.156102 530.628266zM315.994396 869.828688c-38.071084-21.979594-48.28675-83.45983-33.850969-163.944909 35.681664 9.676383 74.559113 17.179264 115.755374 22.075785 24.843828 33.232892 50.776454 63.147202 77.001745 89.207741C412.416446 869.914646 354.06241 891.806235 315.994396 869.828688zM707.665867 869.828688c-38.07006 21.978571-96.421027 0.085958-158.90308-52.655244 26.226315-26.060539 52.16201-55.980989 77.001745-89.213881 41.196261-4.90266 80.068593-12.399401 115.750257-22.081924C755.9475 786.362718 745.73388 847.849094 707.665867 869.828688zM778.443863 641.914862c-9.453303-35.738969-22.398126-73.15616-38.749536-111.280456 16.35141-38.131459 29.290093-75.550697 38.743396-111.294782 76.921927 27.742854 125.063367 67.331501 125.063367 111.288642C903.50109 574.587454 855.36272 614.175077 778.443863 641.914862z" p-id="20942"></path><path d="M719.302905 175.37217m-92.414783 0a90.31 90.31 0 1 0 184.829566 0 90.31 90.31 0 1 0-184.829566 0Z" p-id="20943"></path></svg>